<?xml version="1.0" standalone="no"?>
<!DOCTYPE svg PUBLIC "-//W3C//DTD SVG 20010904//EN"
 "http://www.w3.org/TR/2001/REC-SVG-20010904/DTD/svg10.dtd">
<svg version="1.0" xmlns="http://www.w3.org/2000/svg"
 width="1080.000000pt" height="552.000000pt" viewBox="0 0 1080.000000 552.000000"
 preserveAspectRatio="xMidYMid meet">

<g transform="translate(0.000000,552.000000) scale(0.100000,-0.100000)"
fill="#000000" stroke="none">
<path d="M1985 5447 c-44 -24 -108 -60 -143 -80 -35 -20 -65 -37 -67 -37 -13
0 -328 -205 -434 -282 -281 -205 -422 -326 -676 -582 -226 -227 -391 -418
-557 -641 -20 -27 -41 -55 -45 -60 -4 -6 -20 -27 -35 -47 l-28 -37 0 -215 0
-216 82 -112 c46 -62 109 -147 142 -188 334 -426 836 -888 1236 -1140 30 -19
57 -37 60 -40 23 -24 359 -215 479 -271 91 -43 89 -43 186 1 33 15 94 42 135
60 88 38 111 48 285 124 72 32 139 61 150 66 11 4 49 21 85 37 36 16 116 51
178 78 62 27 109 52 105 56 -5 3 -39 17 -78 29 -117 38 -353 134 -485 199
-133 66 -131 64 -288 156 -57 33 -112 64 -122 70 -11 5 -20 13 -20 17 0 5 -4
8 -9 8 -29 0 -373 259 -531 398 -234 207 -610 613 -610 660 0 16 109 156 229
292 153 175 428 438 601 574 47 37 92 73 101 80 77 63 361 254 439 297 25 13
47 26 50 29 39 39 531 268 649 302 52 15 66 7 -334 180 -77 33 -251 109 -386
169 -136 60 -251 109 -255 109 -5 0 -45 -20 -89 -43z"/>
<path d="M9480 4400 c-96 -43 -203 -90 -237 -105 -35 -16 -63 -31 -63 -35 0
-4 21 -15 48 -25 70 -27 270 -127 338 -170 128 -82 295 -216 410 -330 129
-128 234 -250 234 -273 0 -28 -180 -223 -321 -348 -167 -147 -431 -304 -646
-384 -82 -30 -114 -50 -83 -50 6 0 29 -9 53 -19 23 -11 112 -50 197 -86 85
-37 175 -76 199 -87 24 -11 53 -17 65 -14 53 13 360 199 439 266 12 10 56 45
97 78 127 101 319 308 444 477 l66 90 0 82 0 82 -67 88 c-228 300 -428 493
-695 672 -99 66 -284 172 -297 170 -3 -1 -85 -36 -181 -79z"/>
<path d="M2420 3423 l0 -386 223 6 c233 7 287 15 393 62 66 29 148 109 176
173 15 32 23 75 26 134 4 75 1 98 -19 150 -42 114 -150 197 -301 233 -46 11
-123 15 -280 15 l-218 0 0 -387z m488 259 c117 -45 172 -118 180 -236 5 -81
-12 -134 -61 -192 -57 -68 -206 -109 -372 -102 l-80 3 -3 265 c-1 146 0 271 3
279 9 23 264 10 333 -17z"/>
<path d="M3720 3425 l0 -386 73 3 72 3 3 173 2 172 230 0 230 0 2 -172 3 -173
66 -3 c47 -2 69 1 78 11 8 11 11 113 9 383 l-3 369 -77 3 -78 3 0 -161 0 -160
-227 2 -228 3 -3 158 -3 157 -74 0 -75 0 0 -385z"/>
<path d="M4990 3438 c0 -205 4 -379 8 -386 7 -9 68 -12 273 -10 l264 3 3 47 3
48 -198 2 -198 3 0 120 0 120 178 3 178 2 -3 43 -3 42 -178 3 -178 2 3 118 3
117 198 3 197 2 0 45 0 45 -275 0 -274 0 -1 -372z"/>
<path d="M6012 3428 l3 -383 70 0 70 0 5 155 5 155 50 3 c28 1 55 -1 60 -5 6
-5 46 -53 88 -108 43 -55 96 -123 118 -152 l41 -51 79 -1 c43 0 79 3 79 7 0 4
-52 71 -115 149 -63 79 -115 146 -115 151 0 5 19 14 43 21 60 18 141 69 161
102 24 41 35 113 24 161 -13 60 -63 116 -128 147 -54 25 -60 26 -298 29 l-242
4 2 -384z m455 259 c61 -33 82 -121 44 -183 -31 -51 -84 -65 -226 -62 l-120 3
-3 133 -3 134 138 -4 c107 -3 145 -7 170 -21z"/>
<path d="M8621 3688 c-32 -68 -89 -186 -126 -263 -140 -291 -175 -365 -175
-370 0 -3 36 -5 80 -5 47 0 80 4 80 10 0 6 34 81 76 168 42 86 103 213 136
282 33 69 75 154 93 190 57 115 58 110 -30 110 l-76 0 -58 -122z"/>
<path d="M7416 3775 c-9 -13 -16 -27 -16 -30 0 -3 -19 -45 -41 -93 -23 -48
-56 -118 -74 -157 -18 -38 -54 -115 -80 -170 -92 -195 -125 -267 -125 -276 0
-5 34 -9 75 -9 l75 0 39 85 40 85 206 0 206 0 40 -85 39 -85 75 0 c43 0 75 4
75 10 0 5 -50 117 -111 247 -61 131 -136 292 -167 358 -30 66 -59 126 -65 133
-6 8 -38 12 -92 12 -77 0 -84 -2 -99 -25z m183 -289 c40 -88 70 -165 67 -173
-7 -17 -291 -19 -301 -2 -6 9 31 101 116 288 17 37 33 60 38 55 5 -5 41 -81
80 -168z"/>
</g>
</svg>
